<svg width="121" height="56" viewBox="0 0 121 56" fill="none" xmlns="http://www.w3.org/2000/svg">
<path d="M120.5 28C120.5 35.4223 114.033 42.2973 103.215 47.3459C92.437 52.3756 77.5123 55.5 61 55.5C44.4877 55.5 29.563 52.3756 18.785 47.3459C7.96651 42.2973 1.5 35.4223 1.5 28C1.5 20.5777 7.96651 13.7027 18.785 8.6541C29.563 3.6244 44.4877 0.5 61 0.5C77.5123 0.5 92.437 3.6244 103.215 8.6541C114.033 13.7027 120.5 20.5777 120.5 28Z" stroke="#121212"/>
<rect width="121" height="32" transform="translate(0 12)" fill="#121212"/>
<path d="M12.88 36H10L17.176 19.92H20.824L28 36H25.072L23.224 31.824H14.728L12.88 36ZM17.944 24.6L15.76 29.496H22.192L20.008 24.6L19.072 22.32H18.88L17.944 24.6ZM38.344 36.24C33.544 36.24 31.096 34.128 31.096 30.744V30.6H33.688V30.984C33.688 32.904 34.816 33.864 38.344 33.864C41.416 33.864 42.496 33.192 42.496 31.68C42.496 30.288 41.68 29.76 39.64 29.376L35.704 28.728C32.992 28.248 31.072 27 31.072 24.36C31.072 22.032 32.992 19.68 37.984 19.68C42.688 19.68 44.824 22.032 44.824 25.176V25.32H42.256V25.008C42.256 23.04 41.08 22.056 37.744 22.056C34.816 22.056 33.664 22.776 33.664 24.216C33.664 25.608 34.48 26.064 36.376 26.472L40.288 27.144C43.504 27.72 45.088 29.184 45.088 31.536C45.088 33.984 43.096 36.24 38.344 36.24ZM51.9201 36H49.3281V19.92H52.8561L57.4881 29.232L58.9521 32.568H59.1441L60.5601 29.232L65.1441 19.92H68.6721V36H66.0801V26.136L66.1761 23.808H65.9841L65.0001 26.136L60.5601 35.04H57.4401L53.0001 26.136L52.0161 23.808H51.8241L51.9201 26.136V36ZM81.3021 36.24C76.3101 36.24 72.9981 32.976 72.9981 27.96C72.9981 22.944 76.3101 19.68 81.3021 19.68C85.8381 19.68 89.0061 22.08 89.0061 25.92V26.256H86.1501V25.92C86.1501 23.472 84.5901 22.152 81.3261 22.152C77.5581 22.152 75.7341 23.952 75.7341 27.96C75.7341 31.968 77.5581 33.744 81.3261 33.744C84.5901 33.744 86.1501 32.448 86.1501 29.976V29.664H89.0061V29.976C89.0061 33.84 85.8621 36.24 81.3021 36.24ZM101.212 36.24C96.1716 36.24 92.8356 32.976 92.8356 27.96C92.8356 22.944 96.1716 19.68 101.212 19.68C106.3 19.68 109.612 22.944 109.612 27.96C109.612 32.976 106.3 36.24 101.212 36.24ZM101.212 33.744C105.028 33.744 106.876 31.968 106.876 27.96C106.876 23.952 105.028 22.152 101.212 22.152C97.3956 22.152 95.5716 23.952 95.5716 27.96C95.5716 31.968 97.3956 33.744 101.212 33.744Z" fill="white"/>
</svg>
